<svg version="1.1" xmlns="http://www.w3.org/2000/svg" xmlns:xlink="http://www.w3.org/1999/xlink" width="85.626" height="46.047" viewBox="0,0,85.626,46.047"><defs><linearGradient x1="195.16985" y1="180.46867" x2="280.79491" y2="180.46867" gradientUnits="userSpaceOnUse" id="color-1"><stop offset="0.012" stop-color="#a7a9ac"/><stop offset="1" stop-color="#414042"/></linearGradient><linearGradient x1="198.38135" y1="180.46791" x2="277.58255" y2="180.46791" gradientUnits="userSpaceOnUse" id="color-2"><stop offset="0" stop-color="#d1d2d3"/><stop offset="1" stop-color="#a4a5a8"/></linearGradient></defs><g transform="translate(-195.169,-157.445)"><g data-paper-data="{&quot;isPaintingLayer&quot;:true}" fill-rule="nonzero" stroke="none" stroke-width="1" stroke-linecap="butt" stroke-linejoin="miter" stroke-miterlimit="10" stroke-dasharray="" stroke-dashoffset="0" style="mix-blend-mode: normal"><g><path d="M280.795,196.24452c0,4.00233 -3.62636,7.24748 -8.09674,7.24748h-69.43345c-4.47132,0 -8.0958,-3.246 -8.0958,-7.24748v-31.55287c0,-4.00233 3.62448,-7.24664 8.0958,-7.24664h69.43251c4.4732,0 8.09674,3.24431 8.09674,7.24664v31.55287z" fill="url(#color-1)"/><path d="M277.58171,164.69164v31.55203c0,2.41049 -2.18956,4.37123 -4.88439,4.37123h-69.43251c-2.69201,0 -4.88345,-1.96074 -4.88345,-4.37123v-31.55287c0,-2.41049 2.19144,-4.37123 4.88345,-4.37123h69.43251c2.69484,0 4.88439,1.96158 4.88439,4.37207z" fill="url(#color-2)"/><text transform="translate(198.05108,171.57233) scale(0.31617,0.29337)" font-size="40" xml:space="preserve" fill="#9966ff" fill-rule="nonzero" stroke="none" stroke-width="1" stroke-linecap="butt" stroke-linejoin="miter" stroke-miterlimit="10" stroke-dasharray="" stroke-dashoffset="0" font-family="Sans Serif" font-weight="normal" text-anchor="start" style="mix-blend-mode: normal"><tspan x="0" dy="0">Продолжить</tspan></text><text transform="translate(216.19043,188.56475) scale(0.47047,0.42112)" font-size="40" xml:space="preserve" fill="#9966ff" fill-rule="nonzero" stroke="none" stroke-width="1" stroke-linecap="butt" stroke-linejoin="miter" stroke-miterlimit="10" stroke-dasharray="" stroke-dashoffset="0" font-family="Sans Serif" font-weight="normal" text-anchor="start" style="mix-blend-mode: normal"><tspan x="0" dy="0">игру</tspan></text></g></g></g></svg>