<svg version="1.1" xmlns="http://www.w3.org/2000/svg" xmlns:xlink="http://www.w3.org/1999/xlink" width="69.76349" height="34.5775" viewBox="0,0,69.76349,34.5775"><defs><linearGradient x1="181.04794" y1="185.78605" x2="250.81142" y2="185.78605" gradientUnits="userSpaceOnUse" id="color-1"><stop offset="0" stop-color="#fbb040"/><stop offset="1" stop-color="#f15a29"/></linearGradient><linearGradient x1="183.66576" y1="185.78539" x2="248.19297" y2="185.78539" gradientUnits="userSpaceOnUse" id="color-2"><stop offset="0" stop-color="#ed7340"/><stop offset="0.5181" stop-color="#f4aa46"/><stop offset="1" stop-color="#f29746"/></linearGradient></defs><g transform="translate(-181.04799,-168.4975)"><g data-paper-data="{&quot;isPaintingLayer&quot;:true}" fill-rule="nonzero" stroke="none" stroke-width="1" stroke-linecap="butt" stroke-linejoin="miter" stroke-miterlimit="10" stroke-dasharray="" stroke-dashoffset="0" style="mix-blend-mode: normal"><path d="M250.81148,185.78625c0,9.53249 -6.81938,17.28875 -15.2003,17.28875h-39.36463c-8.38034,0 -15.19856,-7.7556 -15.19856,-17.28875c0,-9.53315 6.81764,-17.28875 15.19856,-17.28875h39.36463c8.38092,0 15.19972,7.75494 15.2003,17.28875z" fill="url(#color-1)"/><path d="M248.19303,185.78493c0,7.90439 -5.63282,14.31096 -12.58184,14.31096h-39.36463c-6.94844,0 -12.58068,-6.40657 -12.58068,-14.31096v0c0,-7.90307 5.63224,-14.3103 12.58068,-14.3103h39.36463c6.94844,0 12.58184,6.40723 12.58184,14.3103z" fill="url(#color-2)"/><text transform="translate(183.49224,190.1925) scale(0.32178,0.42687)" font-size="40" xml:space="preserve" fill="#9966ff" fill-rule="nonzero" stroke="none" stroke-width="1" stroke-linecap="butt" stroke-linejoin="miter" stroke-miterlimit="10" stroke-dasharray="" stroke-dashoffset="0" font-family="Sans Serif" font-weight="normal" text-anchor="start" style="mix-blend-mode: normal"><tspan x="0" dy="0">Обменять</tspan></text></g></g></svg>