<svg version="1.1" xmlns="http://www.w3.org/2000/svg" xmlns:xlink="http://www.w3.org/1999/xlink" width="91.51349" height="38.9525" viewBox="0,0,91.51349,38.9525"><defs><linearGradient x1="183.36821" y1="177.81227" x2="274.88169" y2="177.81227" gradientUnits="userSpaceOnUse" id="color-1"><stop offset="0" stop-color="#fbb040"/><stop offset="1" stop-color="#f15a29"/></linearGradient><linearGradient x1="186.80218" y1="177.81153" x2="271.44689" y2="177.81153" gradientUnits="userSpaceOnUse" id="color-2"><stop offset="0" stop-color="#ed7340"/><stop offset="0.5181" stop-color="#f4aa46"/><stop offset="1" stop-color="#f29746"/></linearGradient></defs><g transform="translate(-183.36827,-158.33625)"><g data-paper-data="{&quot;isPaintingLayer&quot;:true}" fill-rule="nonzero" stroke="none" stroke-width="1" stroke-linecap="butt" stroke-linejoin="miter" stroke-miterlimit="10" stroke-dasharray="" stroke-dashoffset="0" style="mix-blend-mode: normal"><path d="M274.88176,177.8125c0,10.73861 -8.94544,19.47625 -19.93926,19.47625h-51.63725c-10.99306,0 -19.93698,-8.7369 -19.93698,-19.47625c0,-10.73935 8.94316,-19.47625 19.93698,-19.47625h51.63725c10.99382,0 19.9385,8.73615 19.93926,19.47625z" fill="url(#color-1)"/><path d="M271.44696,177.81101c0,8.90451 -7.38895,16.12169 -16.50445,16.12169h-51.63725c-9.11474,0 -16.50293,-7.21718 -16.50293,-16.12169v0c0,-8.90302 7.38819,-16.12094 16.50293,-16.12094h51.63725c9.11474,0 16.50445,7.21792 16.50445,16.12094z" fill="url(#color-2)"/><text transform="translate(199.08834,183.58307) scale(0.4221,0.48088)" font-size="40" xml:space="preserve" fill="#9966ff" fill-rule="nonzero" stroke="none" stroke-width="1" stroke-linecap="butt" stroke-linejoin="miter" stroke-miterlimit="10" stroke-dasharray="" stroke-dashoffset="0" font-family="Sans Serif" font-weight="normal" text-anchor="start" style="mix-blend-mode: normal"><tspan x="0" dy="0">Купить</tspan></text></g></g></svg>