<svg version="1.1" xmlns="http://www.w3.org/2000/svg" xmlns:xlink="http://www.w3.org/1999/xlink" width="91.02054" height="54.71248" viewBox="0,0,91.02054,54.71248"><defs><linearGradient x1="194.50091" y1="179.97524" x2="285.50089" y2="180.02516" gradientUnits="userSpaceOnUse" id="color-1"><stop offset="0.012" stop-color="#a7a9ac"/><stop offset="1" stop-color="#414042"/></linearGradient><linearGradient x1="197.91401" y1="179.97771" x2="282.08689" y2="180.02389" gradientUnits="userSpaceOnUse" id="color-2"><stop offset="0" stop-color="#d1d2d3"/><stop offset="1" stop-color="#a4a5a8"/></linearGradient></defs><g transform="translate(-194.48973,-152.64376)"><g data-paper-data="{&quot;isPaintingLayer&quot;:true}" fill-rule="nonzero" stroke="none" stroke-width="1" stroke-linecap="butt" stroke-linejoin="miter" stroke-miterlimit="10" stroke-dasharray="" stroke-dashoffset="0" style="mix-blend-mode: normal"><path d="M285.49072,198.75596c-0.00261,4.752 -3.85872,8.60288 -8.60972,8.60028l-73.79199,-0.04049c-4.752,-0.00261 -8.60188,-3.85872 -8.59928,-8.60972l0.02055,-37.46299c0.00261,-4.752 3.85672,-8.60189 8.60872,-8.59928l73.79099,0.04049c4.754,0.00261 8.60289,3.85672 8.60028,8.60872l-0.02055,37.46299z" fill="url(#color-1)"/><path d="M282.09627,161.29259l-0.02055,37.46199c-0.00157,2.862 -2.32985,5.18872 -5.19385,5.18715l-73.79099,-0.04049c-2.861,-0.00157 -5.18872,-2.33085 -5.18715,-5.19285l0.02055,-37.46299c0.00157,-2.862 2.33185,-5.18872 5.19285,-5.18715l73.79099,0.04049c2.864,0.00157 5.18972,2.33185 5.18815,5.19385z" fill="url(#color-2)"/><text transform="translate(198.01501,184.8625) scale(0.34923,0.42145)" font-size="40" xml:space="preserve" fill="#9966ff" fill-rule="nonzero" stroke="none" stroke-width="1" stroke-linecap="butt" stroke-linejoin="miter" stroke-miterlimit="10" stroke-dasharray="" stroke-dashoffset="0" font-family="Sans Serif" font-weight="normal" text-anchor="start" style="mix-blend-mode: normal"><tspan x="0" dy="0">Что нового?</tspan></text></g></g></svg>